<svg width="282" height="282" viewBox="0 0 282 282" fill="none" xmlns="http://www.w3.org/2000/svg">
<rect width="282" height="282" fill="#1E1E1E"/>
<rect width="282" height="282" rx="22" fill="#FFA800"/>
<path d="M184.44 152.656V218.832C184.44 222.587 183.8 226 182.52 229.072C181.24 232.144 179.405 234.747 177.016 236.88C174.712 239.013 171.939 240.677 168.696 241.872C165.453 242.981 161.912 243.536 158.072 243.536C151.245 243.536 145.613 241.787 141.176 238.288C136.739 234.704 133.837 229.712 132.472 223.312L142.712 221.136C143.139 222.928 143.693 224.635 144.376 226.256C145.144 227.792 146.125 229.157 147.32 230.352C148.6 231.461 150.136 232.357 151.928 233.04C153.72 233.723 155.853 234.064 158.328 234.064C163.192 234.064 166.947 232.699 169.592 229.968C172.323 227.152 173.688 222.8 173.688 216.912V162H141.432V152.656H184.44ZM237.894 243.536C229.873 243.536 223.302 242.085 218.182 239.184C213.062 236.197 208.838 232.4 205.51 227.792L213.318 221.392C216.817 225.744 220.486 228.987 224.326 231.12C228.251 233.253 232.902 234.32 238.278 234.32C244.763 234.32 249.713 232.827 253.126 229.84C256.539 226.853 258.246 222.672 258.246 217.296C258.246 212.944 257.009 209.573 254.534 207.184C252.059 204.709 247.75 202.96 241.606 201.936L231.622 200.272C227.27 199.504 223.601 198.352 220.614 196.816C217.713 195.28 215.366 193.445 213.574 191.312C211.782 189.093 210.502 186.704 209.734 184.144C208.966 181.499 208.582 178.768 208.582 175.952C208.582 167.76 211.27 161.573 216.646 157.392C222.022 153.211 229.275 151.12 238.406 151.12C245.574 151.12 251.59 152.315 256.454 154.704C261.403 157.093 265.371 160.464 268.358 164.816L260.806 171.344C258.331 168.101 255.345 165.456 251.846 163.408C248.347 161.36 243.825 160.336 238.278 160.336C232.219 160.336 227.569 161.616 224.326 164.176C221.083 166.736 219.462 170.576 219.462 175.696C219.462 179.707 220.657 182.992 223.046 185.552C225.521 188.027 229.915 189.819 236.23 190.928L245.83 192.592C250.182 193.36 253.851 194.512 256.838 196.048C259.825 197.584 262.214 199.419 264.006 201.552C265.883 203.685 267.206 206.075 267.974 208.72C268.742 211.365 269.126 214.139 269.126 217.04C269.126 225.317 266.395 231.803 260.934 236.496C255.558 241.189 247.878 243.536 237.894 243.536Z" fill="black"/>
<path d="M141.64 270.324C140.578 270.324 139.624 270.153 138.778 269.811C137.932 269.469 137.212 268.983 136.618 268.353C136.042 267.723 135.592 266.958 135.268 266.058C134.962 265.158 134.809 264.15 134.809 263.034C134.809 261.918 134.962 260.91 135.268 260.01C135.592 259.11 136.042 258.345 136.618 257.715C137.212 257.085 137.923 256.599 138.751 256.257C139.597 255.915 140.551 255.744 141.613 255.744C143.089 255.744 144.277 256.05 145.177 256.662C146.077 257.274 146.761 258.084 147.229 259.092L144.556 260.55C144.304 259.956 143.944 259.479 143.476 259.119C143.026 258.741 142.405 258.552 141.613 258.552C140.587 258.552 139.795 258.849 139.237 259.443C138.697 260.037 138.427 260.847 138.427 261.873V264.195C138.427 265.203 138.697 266.013 139.237 266.625C139.795 267.219 140.605 267.516 141.667 267.516C142.495 267.516 143.152 267.327 143.638 266.949C144.142 266.571 144.547 266.067 144.853 265.437L147.445 266.976C146.977 267.966 146.266 268.776 145.312 269.406C144.376 270.018 143.152 270.324 141.64 270.324ZM160.799 270.324C159.737 270.324 158.783 270.153 157.937 269.811C157.109 269.469 156.398 268.983 155.804 268.353C155.228 267.723 154.778 266.958 154.454 266.058C154.148 265.158 153.995 264.15 153.995 263.034C153.995 261.918 154.148 260.91 154.454 260.01C154.778 259.11 155.228 258.345 155.804 257.715C156.398 257.085 157.109 256.599 157.937 256.257C158.783 255.915 159.737 255.744 160.799 255.744C161.843 255.744 162.788 255.915 163.634 256.257C164.48 256.599 165.191 257.085 165.767 257.715C166.361 258.345 166.811 259.11 167.117 260.01C167.441 260.91 167.603 261.918 167.603 263.034C167.603 264.15 167.441 265.158 167.117 266.058C166.811 266.958 166.361 267.723 165.767 268.353C165.191 268.983 164.48 269.469 163.634 269.811C162.788 270.153 161.843 270.324 160.799 270.324ZM160.799 267.678C161.789 267.678 162.572 267.381 163.148 266.787C163.724 266.175 164.012 265.284 164.012 264.114V261.954C164.012 260.784 163.724 259.902 163.148 259.308C162.572 258.696 161.789 258.39 160.799 258.39C159.809 258.39 159.026 258.696 158.45 259.308C157.874 259.902 157.586 260.784 157.586 261.954V264.114C157.586 265.284 157.874 266.175 158.45 266.787C159.026 267.381 159.809 267.678 160.799 267.678ZM183.118 267.543H182.983C182.677 268.299 182.2 268.956 181.552 269.514C180.922 270.054 180.04 270.324 178.906 270.324C177.538 270.324 176.422 269.874 175.558 268.974C174.712 268.056 174.289 266.751 174.289 265.059V256.068H177.745V264.573C177.745 266.589 178.618 267.597 180.364 267.597C180.706 267.597 181.039 267.552 181.363 267.462C181.705 267.372 182.002 267.237 182.254 267.057C182.524 266.859 182.731 266.625 182.875 266.355C183.037 266.085 183.118 265.761 183.118 265.383V256.068H186.574V270H183.118V267.543ZM194.123 267.273H197.579V258.795H194.123V256.068H201.035V259.875H201.251C201.377 259.389 201.548 258.921 201.764 258.471C201.998 258.003 202.286 257.598 202.628 257.256C202.988 256.896 203.42 256.608 203.924 256.392C204.428 256.176 205.031 256.068 205.733 256.068H207.245V259.308H204.383C203.339 259.308 202.52 259.614 201.926 260.226C201.332 260.838 201.035 261.621 201.035 262.575V267.273H205.868V270H194.123V267.273ZM219.844 270.324C218.314 270.324 216.991 270.09 215.875 269.622C214.759 269.136 213.886 268.488 213.256 267.678L215.281 265.842C215.857 266.472 216.514 266.958 217.252 267.3C218.008 267.642 218.881 267.813 219.871 267.813C220.735 267.813 221.428 267.669 221.95 267.381C222.472 267.093 222.733 266.652 222.733 266.058C222.733 265.554 222.553 265.212 222.193 265.032C221.851 264.852 221.392 264.717 220.816 264.627L218.575 264.276C217.999 264.186 217.432 264.06 216.874 263.898C216.334 263.718 215.848 263.475 215.416 263.169C215.002 262.863 214.669 262.476 214.417 262.008C214.165 261.522 214.039 260.937 214.039 260.253C214.039 258.795 214.579 257.679 215.659 256.905C216.757 256.131 218.26 255.744 220.168 255.744C221.518 255.744 222.661 255.933 223.597 256.311C224.551 256.689 225.334 257.22 225.946 257.904L224.137 259.902C223.741 259.47 223.21 259.092 222.544 258.768C221.896 258.426 221.068 258.255 220.06 258.255C218.296 258.255 217.414 258.804 217.414 259.902C217.414 260.406 217.594 260.757 217.954 260.955C218.314 261.135 218.782 261.27 219.358 261.36L221.572 261.711C222.166 261.801 222.733 261.936 223.273 262.116C223.831 262.278 224.317 262.512 224.731 262.818C225.163 263.124 225.505 263.511 225.757 263.979C226.009 264.447 226.135 265.023 226.135 265.707C226.135 267.147 225.577 268.281 224.461 269.109C223.363 269.919 221.824 270.324 219.844 270.324ZM239.921 270.324C238.805 270.324 237.815 270.153 236.951 269.811C236.087 269.469 235.358 268.983 234.764 268.353C234.188 267.723 233.747 266.967 233.441 266.085C233.135 265.185 232.982 264.177 232.982 263.061C232.982 261.927 233.135 260.91 233.441 260.01C233.765 259.11 234.215 258.345 234.791 257.715C235.367 257.085 236.06 256.599 236.87 256.257C237.698 255.915 238.625 255.744 239.651 255.744C240.659 255.744 241.568 255.915 242.378 256.257C243.188 256.581 243.872 257.049 244.43 257.661C245.006 258.273 245.447 259.011 245.753 259.875C246.059 260.739 246.212 261.693 246.212 262.737V263.871H236.438V264.222C236.438 265.23 236.753 266.049 237.383 266.679C238.013 267.291 238.895 267.597 240.029 267.597C240.893 267.597 241.631 267.426 242.243 267.084C242.873 266.724 243.395 266.256 243.809 265.68L245.78 267.651C245.276 268.389 244.538 269.019 243.566 269.541C242.612 270.063 241.397 270.324 239.921 270.324ZM239.678 258.282C238.706 258.282 237.923 258.588 237.329 259.2C236.735 259.812 236.438 260.622 236.438 261.63V261.819H242.756V261.576C242.756 260.568 242.477 259.767 241.919 259.173C241.379 258.579 240.632 258.282 239.678 258.282ZM259.243 270.324C257.713 270.324 256.39 270.09 255.274 269.622C254.158 269.136 253.285 268.488 252.655 267.678L254.68 265.842C255.256 266.472 255.913 266.958 256.651 267.3C257.407 267.642 258.28 267.813 259.27 267.813C260.134 267.813 260.827 267.669 261.349 267.381C261.871 267.093 262.132 266.652 262.132 266.058C262.132 265.554 261.952 265.212 261.592 265.032C261.25 264.852 260.791 264.717 260.215 264.627L257.974 264.276C257.398 264.186 256.831 264.06 256.273 263.898C255.733 263.718 255.247 263.475 254.815 263.169C254.401 262.863 254.068 262.476 253.816 262.008C253.564 261.522 253.438 260.937 253.438 260.253C253.438 258.795 253.978 257.679 255.058 256.905C256.156 256.131 257.659 255.744 259.567 255.744C260.917 255.744 262.06 255.933 262.996 256.311C263.95 256.689 264.733 257.22 265.345 257.904L263.536 259.902C263.14 259.47 262.609 259.092 261.943 258.768C261.295 258.426 260.467 258.255 259.459 258.255C257.695 258.255 256.813 258.804 256.813 259.902C256.813 260.406 256.993 260.757 257.353 260.955C257.713 261.135 258.181 261.27 258.757 261.36L260.971 261.711C261.565 261.801 262.132 261.936 262.672 262.116C263.23 262.278 263.716 262.512 264.13 262.818C264.562 263.124 264.904 263.511 265.156 263.979C265.408 264.447 265.534 265.023 265.534 265.707C265.534 267.147 264.976 268.281 263.86 269.109C262.762 269.919 261.223 270.324 259.243 270.324Z" fill="black"/>
</svg>
